<?xml version="1.0" standalone="no"?><!DOCTYPE svg PUBLIC "-//W3C//DTD SVG 1.1//EN" "http://www.w3.org/Graphics/SVG/1.1/DTD/svg11.dtd"><svg t="1754626024522" class="icon" viewBox="0 0 1024 1024" version="1.1" xmlns="http://www.w3.org/2000/svg" p-id="12076" width="16" height="16" xmlns:xlink="http://www.w3.org/1999/xlink"><path d="M128 0h768a128 128 0 0 1 128 128v768a128 128 0 0 1-128 128H128a128 128 0 0 1-128-128V128a128 128 0 0 1 128-128z m0 64a64 64 0 0 0-64 64v768a64 64 0 0 0 64 64h768a64 64 0 0 0 64-64V128a64 64 0 0 0-64-64H128z" fill="#000000" p-id="12077"></path><path d="M821.824 587.008c-14.272-17.024-43.392-25.344-89.024-25.344-26.56 0-58.688 2.752-95.616 8.448-100.48-74.24-128.576-156.16-128.576-156.16s17.152-44.16 18.304-116.224c0.768-45.568-6.336-76.288-24.32-94.208A44.288 44.288 0 0 0 472.576 192a39.552 39.552 0 0 0-23.616 7.552c-52.352 38.592 4.736 220.8 6.4 225.664a1656.96 1656.96 0 0 1-87.68 183.36c-10.368 18.496-9.408 17.024-18.176 32.192 0 0-88.32 41.92-131.328 93.44-24.192 29.184-27.2 48.832-25.92 63.872v0.256c1.984 17.664 24.32 33.664 46.848 33.664 0.832 0 1.92 0 2.752-0.128 22.912-1.472 48-17.92 76.672-50.24 18.88-21.44 43.52-59.008 73.216-111.744 85.056-24.448 159.872-41.792 222.528-51.712 46.016 25.088 114.432 53.312 161.024 53.312 15.552 0 28.224-3.2 37.312-9.6 10.944-7.552 15.552-17.024 18.496-34.56 2.816-17.28-1.216-30.528-9.28-40.32z m-99.264 21.44c40.96 0 62.976 5.952 74.368 11.072a53.056 53.056 0 0 1 7.936 4.352c-3.2 2.048-9.536 4.672-20.928 4.672-18.88 0-43.648-6.72-73.92-19.84 4.288-0.256 8.512-0.256 12.544-0.256zM480.256 228.48s0-0.128 0.128-0.128c8.768 4.672 12.8 37.44 11.968 56.32-1.152 25.536-1.28 35.456-5.76 51.008-11.968-32.64-12.8-91.328-6.4-107.2z m3.328 258.432c20.608 33.792 51.136 70.464 80.64 96.64-57.472 12.288-112.64 27.712-146.944 39.68 36.608-63.552 63.808-129.92 66.304-136.32z m-236.736 291.84c5.12-8.448 18.624-24.576 53.248-56.064-23.68 35.968-41.088 55.68-58.88 67.84 1.472-3.84 3.328-7.936 5.632-11.776z" fill="#000000" p-id="12078"></path></svg>